<svg xmlns="http://www.w3.org/2000/svg" version="1.1" xmlns:xlink="http://www.w3.org/1999/xlink" xmlns:svgjs="http://svgjs.com/svgjs" width="1440" height="560" preserveAspectRatio="none" viewBox="0 0 1440 560"><g mask="url(&quot;#SvgjsMask1052&quot;)" fill="none"><rect width="1440" height="560" x="0" y="0" fill="rgba(78, 84, 200, 1)"></rect><path d="M 0,131 C 57.6,141.4 172.8,208.2 288,183 C 403.2,157.8 460.8,0.8 576,5 C 691.2,9.2 748.8,194.4 864,204 C 979.2,213.6 1036.8,64.2 1152,53 C 1267.2,41.8 1382.4,129 1440,148L1440 560L0 560z" fill="rgba(143, 148, 251, 1)"></path><path d="M 0,379 C 96,409 288,546 480,529 C 672,512 768,296 960,294 C 1152,292 1344,474 1440,519L1440 560L0 560z" fill="rgba(255, 255, 255, 0.2)"></path></g><defs><mask id="SvgjsMask1052"><rect width="1440" height="560" fill="#ffffff"></rect></mask></defs></svg>